<?xml version="1.0" encoding="utf-8"?>
<!-- Generator: Adobe Illustrator 27.5.0, SVG Export Plug-In . SVG Version: 6.00 Build 0)  -->
<svg version="1.1" id="Layer_1" xmlns="http://www.w3.org/2000/svg" xmlns:xlink="http://www.w3.org/1999/xlink" x="0px" y="0px"
	 viewBox="0 0 3421 1316" style="enable-background:new 0 0 3421 1316;" xml:space="preserve">
<g>
	<linearGradient id="SVGID_1_" gradientUnits="userSpaceOnUse" x1="1464.5999" y1="1035.8854" x2="2157.5825" y2="-30.6601">
		<stop  offset="0" style="stop-color:#FFE0C9"/>
		<stop  offset="1" style="stop-color:#F7F7F7"/>
	</linearGradient>
	<rect style="fill:url(#SVGID_1_);" width="3420.526" height="1315.587"/>
	<g>
		<polygon style="fill:#FFFFFF;" points="2666.659,487.813 2686.373,491.12 2695.012,473.094 2697.959,492.865 2717.772,495.511 
			2699.88,504.424 2703.485,524.084 2689.48,509.822 2671.896,519.327 2681.132,501.6 		"/>
		<polygon style="fill:#FFFFFF;" points="2182.684,484.718 2154.393,514.429 2175.1,549.845 2138.102,532.119 2110.817,562.757 
			2116.242,522.092 2078.673,505.611 2119.025,498.204 2123.089,457.38 2142.603,493.468 		"/>
		<polygon style="fill:#FFFFFF;" points="1851.482,959.479 1871.024,969.85 1886.404,953.948 1882.579,975.738 1902.456,985.451 
			1880.551,988.547 1877.455,1010.453 1867.741,990.576 1845.951,994.401 1861.854,979.021 		"/>
		<polygon style="fill:#FFFFFF;" points="1821.885,692.87 1804.105,726.37 1831.367,752.737 1794.012,746.179 1777.36,780.254 
			1772.054,742.701 1734.5,737.394 1768.576,720.743 1762.018,683.388 1788.385,710.65 		"/>
		<polygon style="fill:#FFFFFF;" points="2810.053,746.486 2852.271,754.581 2871.748,716.259 2877.096,758.912 2919.561,765.593 
			2880.647,783.86 2887.416,826.311 2858.018,794.947 2819.737,814.503 2840.481,776.852 		"/>
		<polygon style="fill:#FFFFFF;" points="3131.391,469.778 3125.293,488.01 3141.121,498.921 3121.897,498.756 3116.411,517.18 
			3110.628,498.846 3091.41,499.323 3107.06,488.157 3100.668,470.026 3116.123,481.46 		"/>
		<polygon style="fill:#FFFFFF;" points="2283.001,888.179 2304.197,888.694 2310.564,868.471 2316.625,888.789 2337.825,888.596 
			2320.375,900.637 2327.11,920.74 2310.265,907.865 2293.227,920.483 2300.267,900.485 		"/>
		<polygon style="fill:#FFFFFF;" points="3281.899,1074.19 3263.808,1091.423 3275.353,1113.582 3253.372,1101.701 
			3235.866,1119.529 3240.373,1094.953 3218.008,1083.813 3242.774,1080.504 3246.458,1055.792 3257.258,1078.323 		"/>
		<polygon style="fill:#FFFFFF;" points="1589.609,180.952 1628.209,192.494 1649.995,158.603 1650.946,198.881 1689.911,209.127 
			1651.898,222.479 1654.193,262.702 1629.749,230.676 1592.204,245.289 1615.109,212.145 		"/>
		<polygon style="fill:#FFFFFF;" points="2422.082,74.615 2405.129,103.187 2427.884,127.393 2395.472,120.099 2379.482,149.221 
			2376.403,116.141 2343.766,109.933 2374.275,96.782 2370.094,63.824 2392.028,88.776 		"/>
		<polygon style="fill:#FFFFFF;" points="2526.1,1066.479 2545.813,1069.786 2554.452,1051.761 2557.399,1071.531 
			2577.212,1074.178 2559.321,1083.09 2562.926,1102.751 2548.921,1088.489 2531.336,1097.993 2540.573,1080.266 		"/>
		<polygon style="fill:#FFFFFF;" points="1534.921,1113.687 1520.448,1127.474 1529.684,1145.2 1512.1,1135.696 1498.095,1149.958 
			1501.7,1130.298 1483.808,1121.385 1503.621,1118.739 1506.568,1098.968 1515.208,1116.993 		"/>
		<polygon style="fill:#FFFFFF;" points="2978.077,1171.413 3017.987,1187.228 3044.242,1153.262 3041.534,1196.107 
			3081.95,1210.58 3040.366,1221.244 3039.09,1264.155 3016.098,1227.902 2974.893,1239.948 3002.266,1206.878 		"/>
		<polygon style="fill:#FFFFFF;" points="2258.429,1122.06 2244.438,1145.048 2262.651,1164.86 2236.464,1158.659 2223.25,1182.102 
			2221.055,1155.28 2194.676,1149.957 2219.507,1139.582 2216.418,1112.849 2233.958,1133.258 		"/>
		<polygon style="fill:#FFFFFF;" points="3297.291,508.915 3311.139,535.973 3340.976,530.164 3319.521,551.698 3334.265,578.279 
			3307.157,564.528 3286.433,586.765 3291.133,556.733 3263.581,543.895 3293.595,539.086 		"/>
		<polygon style="fill:#FFFFFF;" points="1473.874,491.572 1457.092,513.079 1473.107,535.163 1447.467,525.849 1431.413,547.904 
			1432.348,520.641 1406.411,512.187 1432.629,504.652 1432.654,477.373 1447.922,499.979 		"/>
		<polygon style="fill:#FFFFFF;" points="2433.824,599.625 2455.502,609.342 2470.845,591.205 2468.304,614.825 2490.294,623.812 
			2467.045,628.694 2465.293,652.386 2453.466,631.782 2430.392,637.437 2446.332,619.822 		"/>
	</g>
	<g>
		<polygon style="fill:#EE9A32;" points="2315.151,683.401 2299.418,680.762 2292.523,695.148 2290.171,679.369 2274.359,677.257 
			2288.638,670.145 2285.76,654.454 2296.938,665.836 2310.971,658.251 2303.6,672.398 		"/>
		<polygon style="fill:#EE9A32;" points="2624.302,613.084 2646.881,589.373 2630.355,561.108 2659.883,575.254 2681.658,550.803 
			2677.328,583.257 2707.312,596.41 2675.108,602.321 2671.864,634.902 2656.291,606.101 		"/>
		<polygon style="fill:#EE9A32;" points="2997.71,135.413 2982.114,127.136 2969.84,139.827 2972.892,122.437 2957.029,114.686 
			2974.512,112.215 2976.982,94.733 2984.734,110.596 3002.125,107.543 2989.433,119.818 		"/>
		<polygon style="fill:#EE9A32;" points="3208.661,501.547 3222.851,474.811 3201.094,453.769 3230.906,459.002 3244.195,431.808 
			3248.43,461.778 3278.4,466.013 3251.206,479.302 3256.439,509.114 3235.397,487.357 		"/>
		<polygon style="fill:#EE9A32;" points="2248.471,222.703 2214.777,216.243 2199.234,246.827 2194.966,212.786 2161.076,207.455 
			2192.132,192.877 2186.729,158.997 2210.191,184.029 2240.742,168.422 2224.187,198.47 		"/>
		<polygon style="fill:#EE9A32;" points="1964.778,533.068 1969.645,518.518 1957.013,509.81 1972.355,509.942 1976.734,495.238 
			1981.348,509.87 1996.687,509.49 1984.197,518.4 1989.298,532.87 1976.964,523.746 		"/>
		<polygon style="fill:#EE9A32;" points="2621.878,91.768 2604.963,91.358 2599.881,107.496 2595.045,91.282 2578.125,91.436 
			2592.051,81.826 2586.677,65.782 2600.119,76.057 2613.718,65.988 2608.1,81.948 		"/>
		<polygon style="fill:#EE9A32;" points="1824.144,215.429 1838.583,201.676 1829.368,183.992 1846.911,193.473 1860.882,179.245 
			1857.285,198.859 1875.134,207.749 1855.369,210.39 1852.429,230.113 1843.81,212.13 		"/>
		<polygon style="fill:#EE9A32;" points="3174.715,928.298 3143.909,919.087 3126.523,946.134 3125.763,913.99 3094.667,905.813 
			3125.004,895.157 3123.172,863.056 3142.68,888.615 3172.644,876.953 3154.364,903.404 		"/>
		<polygon style="fill:#ED7E49;" points="2510.341,1013.163 2523.871,990.361 2505.71,971.042 2531.577,976.864 2544.339,953.622 
			2546.796,980.022 2572.843,984.977 2548.494,995.472 2551.831,1021.776 2534.325,1001.862 		"/>
		<polygon style="fill:#ED7E49;" points="2427.327,221.583 2411.595,218.944 2404.699,233.329 2402.348,217.551 2386.536,215.439 
			2400.815,208.326 2397.938,192.635 2409.115,204.018 2423.148,196.432 2415.777,210.58 		"/>
		<polygon style="fill:#ED7E49;" points="3218.36,183.908 3229.91,172.905 3222.54,158.758 3236.573,166.343 3247.75,154.961 
			3244.873,170.652 3259.152,177.764 3243.34,179.876 3240.988,195.655 3234.093,181.269 		"/>
		<polygon style="fill:#ED7E49;" points="2066.617,137.838 2034.766,125.217 2013.812,152.324 2015.973,118.131 1983.718,106.58 
			2016.905,98.069 2017.923,63.824 2036.273,92.756 2069.158,83.142 2047.311,109.534 		"/>
		<polygon style="fill:#ED7E49;" points="2825.555,285.746 2836.72,267.4 2822.186,251.588 2843.084,256.538 2853.631,237.828 
			2855.382,259.233 2876.434,263.482 2856.618,271.763 2859.083,293.097 2845.083,276.809 		"/>
		<polygon style="fill:#ED7E49;" points="1946.367,662.366 1935.315,640.771 1911.503,645.407 1928.626,628.223 1916.858,607.009 
			1938.493,617.983 1955.032,600.236 1951.281,624.203 1973.27,634.449 1949.317,638.288 		"/>
		<polygon style="fill:#ED7E49;" points="3228.059,770.691 3241.452,753.527 3228.671,735.902 3249.134,743.336 3261.946,725.734 
			3261.2,747.492 3281.899,754.239 3260.975,760.252 3260.956,782.023 3248.77,763.982 		"/>
		<polygon style="fill:#ED7E49;" points="2500.97,594.167 2483.669,586.412 2471.424,600.887 2473.453,582.036 2455.903,574.863 
			2474.457,570.968 2475.856,552.06 2485.294,568.503 2503.709,563.99 2490.987,578.048 		"/>
	</g>
	<g>
		<defs>
			<rect id="SVGID_00000089544508567803452650000012063460717233284275_" width="3420.526" height="1315.587"/>
		</defs>
		<clipPath id="SVGID_00000148647046592750032740000013034078119594285980_">
			<use xlink:href="#SVGID_00000089544508567803452650000012063460717233284275_"  style="overflow:visible;"/>
		</clipPath>
		<g style="clip-path:url(#SVGID_00000148647046592750032740000013034078119594285980_);">
			<g>
				<g>
					<rect x="3024.958" y="-260.627" style="fill:#EE9A32;" width="4.435" height="916.908"/>
				</g>
				<g>
					
						<linearGradient id="SVGID_00000008141397757074012030000012824808017714888618_" gradientUnits="userSpaceOnUse" x1="3258.9541" y1="73.795" x2="3386.71" y2="73.795" gradientTransform="matrix(0.9998 0.0174 -0.0174 0.9998 -373.1795 581.4881)">
						<stop  offset="0" style="stop-color:#FFCC97"/>
						<stop  offset="0.1512" style="stop-color:#FECA93"/>
						<stop  offset="0.3155" style="stop-color:#FCC386"/>
						<stop  offset="0.4861" style="stop-color:#F9B970"/>
						<stop  offset="0.6608" style="stop-color:#F3A951"/>
						<stop  offset="0.8371" style="stop-color:#ED962B"/>
						<stop  offset="1" style="stop-color:#E68100"/>
					</linearGradient>
					<path style="fill:url(#SVGID_00000008141397757074012030000012824808017714888618_);" d="M3152.226,670.407
						c-1.956-33.025-29.578-62.333-70.622-60.413c-32.779,1.535-54.431,33.057-54.431,33.057s-21.565-31.578-54.346-33.203
						c-41.033-2.027-68.74,27.209-70.778,60.228c-2.018,32.63,20.923,62.099,39.446,82.13c25.18,27.23,63.215,54.96,85.445,67.848
						c22.263-12.831,60.373-40.461,85.627-67.623C3131.143,732.449,3154.159,703.045,3152.226,670.407z"/>
					
						<linearGradient id="SVGID_00000066483963122316226160000002819467673944137113_" gradientUnits="userSpaceOnUse" x1="3503.0012" y1="73.795" x2="3356.7878" y2="73.795" gradientTransform="matrix(0.9998 0.0174 -0.0174 0.9998 -373.1795 581.4881)">
						<stop  offset="0" style="stop-color:#FFCC97"/>
						<stop  offset="0.1512" style="stop-color:#FECA93"/>
						<stop  offset="0.3155" style="stop-color:#FCC386"/>
						<stop  offset="0.4861" style="stop-color:#F9B970"/>
						<stop  offset="0.6608" style="stop-color:#F3A951"/>
						<stop  offset="0.8371" style="stop-color:#ED962B"/>
						<stop  offset="1" style="stop-color:#E68100"/>
					</linearGradient>
					<path style="fill:url(#SVGID_00000066483963122316226160000002819467673944137113_);" d="M3152.226,670.407
						c-1.956-33.025-29.578-62.333-70.622-60.413c-32.779,1.535-54.431,33.057-54.431,33.057l-0.233,177.003
						c22.263-12.831,60.373-40.461,85.627-67.623C3131.143,732.449,3154.159,703.045,3152.226,670.407z"/>
				</g>
			</g>
			<g>
				<g>
					<rect x="2662.206" y="-260.627" style="fill:#EE9A32;" width="1.712" height="619.233"/>
				</g>
				<g>
					
						<linearGradient id="SVGID_00000031180987167394106830000010812703460591235477_" gradientUnits="userSpaceOnUse" x1="2977.0564" y1="-253.2164" x2="3026.4104" y2="-253.2164" gradientTransform="matrix(0.9998 0.0174 -0.0174 0.9998 -373.1795 581.4881)">
						<stop  offset="0" style="stop-color:#FFCC97"/>
						<stop  offset="0.1512" style="stop-color:#FECA93"/>
						<stop  offset="0.3155" style="stop-color:#FCC386"/>
						<stop  offset="0.4861" style="stop-color:#F9B970"/>
						<stop  offset="0.6608" style="stop-color:#F3A951"/>
						<stop  offset="0.8371" style="stop-color:#ED962B"/>
						<stop  offset="1" style="stop-color:#E68100"/>
					</linearGradient>
					<path style="fill:url(#SVGID_00000031180987167394106830000010812703460591235477_);" d="M2711.369,364.065
						c-0.756-12.758-11.427-24.08-27.282-23.338c-12.663,0.593-21.028,12.77-21.028,12.77s-8.331-12.199-20.995-12.826
						c-15.852-0.783-26.555,10.511-27.342,23.266c-0.78,12.606,8.083,23.99,15.238,31.728c9.728,10.519,24.421,21.232,33.009,26.211
						c8.601-4.957,23.323-15.63,33.079-26.124C2703.224,388.033,2712.116,376.674,2711.369,364.065z"/>
					
						<linearGradient id="SVGID_00000088095955664349911090000010039030710160017082_" gradientUnits="userSpaceOnUse" x1="3071.3352" y1="-253.2164" x2="3014.8508" y2="-253.2164" gradientTransform="matrix(0.9998 0.0174 -0.0174 0.9998 -373.1795 581.4881)">
						<stop  offset="0" style="stop-color:#FFCC97"/>
						<stop  offset="0.1512" style="stop-color:#FECA93"/>
						<stop  offset="0.3155" style="stop-color:#FCC386"/>
						<stop  offset="0.4861" style="stop-color:#F9B970"/>
						<stop  offset="0.6608" style="stop-color:#F3A951"/>
						<stop  offset="0.8371" style="stop-color:#ED962B"/>
						<stop  offset="1" style="stop-color:#E68100"/>
					</linearGradient>
					<path style="fill:url(#SVGID_00000088095955664349911090000010039030710160017082_);" d="M2711.369,364.065
						c-0.756-12.758-11.427-24.08-27.282-23.338c-12.663,0.593-21.028,12.77-21.028,12.77l-0.09,68.379
						c8.601-4.957,23.323-15.63,33.079-26.124C2703.224,388.033,2712.116,376.674,2711.369,364.065z"/>
				</g>
			</g>
			<g>
				<g>
					<rect x="2535.143" y="-260.627" style="fill:#EE9A32;" width="4.373" height="995.035"/>
				</g>
				<g>
					
						<linearGradient id="SVGID_00000011006254444656390360000001524756033097759406_" gradientUnits="userSpaceOnUse" x1="2772.6238" y1="159.5796" x2="2898.4939" y2="159.5796" gradientTransform="matrix(0.9998 0.0174 -0.0174 0.9998 -373.1795 581.4881)">
						<stop  offset="0" style="stop-color:#FFCC97"/>
						<stop  offset="0.1512" style="stop-color:#FECA93"/>
						<stop  offset="0.3155" style="stop-color:#FCC386"/>
						<stop  offset="0.4861" style="stop-color:#F9B970"/>
						<stop  offset="0.6608" style="stop-color:#F3A951"/>
						<stop  offset="0.8371" style="stop-color:#ED962B"/>
						<stop  offset="1" style="stop-color:#E68100"/>
					</linearGradient>
					<path style="fill:url(#SVGID_00000011006254444656390360000001524756033097759406_);" d="M2660.539,748.326
						c-1.927-32.537-29.141-61.414-69.58-59.522c-32.294,1.512-53.628,32.569-53.628,32.569s-21.247-31.112-53.544-32.712
						c-40.427-1.998-67.725,26.808-69.733,59.339c-1.989,32.148,20.613,61.182,38.863,80.917
						c24.809,26.828,62.281,54.149,84.184,66.847c21.934-12.642,59.482-39.864,84.363-66.625
						C2639.767,809.453,2662.444,780.483,2660.539,748.326z"/>
					
						<linearGradient id="SVGID_00000132778246408004947400000010367819108595952298_" gradientUnits="userSpaceOnUse" x1="3013.0686" y1="159.5796" x2="2869.0129" y2="159.5796" gradientTransform="matrix(0.9998 0.0174 -0.0174 0.9998 -373.1795 581.4881)">
						<stop  offset="0" style="stop-color:#FFCC97"/>
						<stop  offset="0.1512" style="stop-color:#FECA93"/>
						<stop  offset="0.3155" style="stop-color:#FCC386"/>
						<stop  offset="0.4861" style="stop-color:#F9B970"/>
						<stop  offset="0.6608" style="stop-color:#F3A951"/>
						<stop  offset="0.8371" style="stop-color:#ED962B"/>
						<stop  offset="1" style="stop-color:#E68100"/>
					</linearGradient>
					<path style="fill:url(#SVGID_00000132778246408004947400000010367819108595952298_);" d="M2660.539,748.326
						c-1.927-32.537-29.141-61.414-69.58-59.522c-32.294,1.512-53.628,32.569-53.628,32.569l-0.229,174.391
						c21.934-12.642,59.482-39.864,84.363-66.625C2639.767,809.453,2662.444,780.483,2660.539,748.326z"/>
				</g>
			</g>
			<g>
				<g>
					<rect x="2100.168" y="-260.627" style="fill:#EE9A32;" width="3.352" height="935.513"/>
				</g>
				<g>
					
						<linearGradient id="SVGID_00000011032887025179064250000003436358018166365079_" gradientUnits="userSpaceOnUse" x1="2368.7856" y1="94.3007" x2="2465.3613" y2="94.3007" gradientTransform="matrix(0.9998 0.0174 -0.0174 0.9998 -373.1795 581.4881)">
						<stop  offset="0" style="stop-color:#FFCC97"/>
						<stop  offset="0.1512" style="stop-color:#FECA93"/>
						<stop  offset="0.3155" style="stop-color:#FCC386"/>
						<stop  offset="0.4861" style="stop-color:#F9B970"/>
						<stop  offset="0.6608" style="stop-color:#F3A951"/>
						<stop  offset="0.8371" style="stop-color:#ED962B"/>
						<stop  offset="1" style="stop-color:#E68100"/>
					</linearGradient>
					<path style="fill:url(#SVGID_00000011032887025179064250000003436358018166365079_);" d="M2196.376,685.565
						c-1.478-24.965-22.359-47.121-53.386-45.669c-24.779,1.16-41.147,24.989-41.147,24.989s-16.302-23.871-41.083-25.099
						c-31.018-1.532-51.963,20.569-53.504,45.529c-1.526,24.667,15.816,46.943,29.818,62.085
						c19.035,20.584,47.787,41.546,64.591,51.29c16.83-9.7,45.639-30.587,64.729-51.12
						C2180.439,732.465,2197.838,710.237,2196.376,685.565z"/>
					
						<linearGradient id="SVGID_00000114063745825448626110000010694415410654476170_" gradientUnits="userSpaceOnUse" x1="2553.2705" y1="94.3007" x2="2442.7417" y2="94.3007" gradientTransform="matrix(0.9998 0.0174 -0.0174 0.9998 -373.1795 581.4881)">
						<stop  offset="0" style="stop-color:#FFCC97"/>
						<stop  offset="0.1512" style="stop-color:#FECA93"/>
						<stop  offset="0.3155" style="stop-color:#FCC386"/>
						<stop  offset="0.4861" style="stop-color:#F9B970"/>
						<stop  offset="0.6608" style="stop-color:#F3A951"/>
						<stop  offset="0.8371" style="stop-color:#ED962B"/>
						<stop  offset="1" style="stop-color:#E68100"/>
					</linearGradient>
					<path style="fill:url(#SVGID_00000114063745825448626110000010694415410654476170_);" d="M2196.376,685.565
						c-1.478-24.965-22.359-47.121-53.386-45.669c-24.779,1.16-41.147,24.989-41.147,24.989l-0.177,133.804
						c16.83-9.7,45.639-30.587,64.729-51.12C2180.439,732.465,2197.838,710.237,2196.376,685.565z"/>
				</g>
			</g>
			<g>
				<g>
					<rect x="1936.587" y="-178.741" style="fill:#ED7E49;" width="1.98" height="510.911"/>
				</g>
				<g>
					
						<linearGradient id="SVGID_00000067222601045237731350000008390809741903008391_" gradientUnits="userSpaceOnUse" x1="2211.0674" y1="-250.6285" x2="2296.4282" y2="-250.6285" gradientTransform="matrix(0.9998 0.0174 -0.0174 0.9998 -373.1795 581.4881)">
						<stop  offset="0" style="stop-color:#FB984D"/>
						<stop  offset="0.22" style="stop-color:#F9944C"/>
						<stop  offset="0.425" style="stop-color:#F3894B"/>
						<stop  offset="0.6243" style="stop-color:#E97648"/>
						<stop  offset="0.8186" style="stop-color:#DA5C44"/>
						<stop  offset="1" style="stop-color:#C93C40"/>
					</linearGradient>
					<path style="fill:url(#SVGID_00000067222601045237731350000008390809741903008391_);" d="M2021.131,341.609
						c-1.307-22.066-19.763-41.648-47.187-40.366c-21.901,1.026-36.368,22.088-36.368,22.088s-14.409-21.099-36.312-22.185
						c-27.416-1.355-45.929,18.18-47.29,40.242c-1.349,21.802,13.98,41.492,26.356,54.875
						c16.824,18.194,42.238,36.722,57.091,45.334c14.875-8.574,40.339-27.035,57.212-45.183
						C2007.045,383.063,2022.423,363.417,2021.131,341.609z"/>
					
						<linearGradient id="SVGID_00000132069022250657191710000000909136837322918585_" gradientUnits="userSpaceOnUse" x1="2374.1292" y1="-250.6285" x2="2276.4358" y2="-250.6285" gradientTransform="matrix(0.9998 0.0174 -0.0174 0.9998 -373.1795 581.4881)">
						<stop  offset="0" style="stop-color:#FB984D"/>
						<stop  offset="0.22" style="stop-color:#F9944C"/>
						<stop  offset="0.425" style="stop-color:#F3894B"/>
						<stop  offset="0.6243" style="stop-color:#E97648"/>
						<stop  offset="0.8186" style="stop-color:#DA5C44"/>
						<stop  offset="1" style="stop-color:#C93C40"/>
					</linearGradient>
					<path style="fill:url(#SVGID_00000132069022250657191710000000909136837322918585_);" d="M2021.131,341.609
						c-1.307-22.066-19.763-41.648-47.187-40.366c-21.901,1.026-36.368,22.088-36.368,22.088l-0.156,118.266
						c14.875-8.574,40.339-27.035,57.212-45.183C2007.045,383.063,2022.423,363.417,2021.131,341.609z"/>
				</g>
			</g>
			<g>
				<g>
					<rect x="2907.074" y="-260.627" style="fill:#ED7E49;" width="1.712" height="705.593"/>
				</g>
				<g>
					
						<linearGradient id="SVGID_00000095324783766837412260000018093015586078873736_" gradientUnits="userSpaceOnUse" x1="3219.7683" y1="-169.6419" x2="3272.3877" y2="-169.6419" gradientTransform="matrix(0.9998 0.0174 -0.0174 0.9998 -373.1795 581.4881)">
						<stop  offset="0" style="stop-color:#FB984D"/>
						<stop  offset="0.22" style="stop-color:#F9944C"/>
						<stop  offset="0.425" style="stop-color:#F3894B"/>
						<stop  offset="0.6243" style="stop-color:#E97648"/>
						<stop  offset="0.8186" style="stop-color:#DA5C44"/>
						<stop  offset="1" style="stop-color:#C93C40"/>
					</linearGradient>
					<path style="fill:url(#SVGID_00000095324783766837412260000018093015586078873736_);" d="M2959.439,450.784
						c-0.805-13.602-12.183-25.674-29.087-24.883c-13.501,0.633-22.419,13.616-22.419,13.616s-8.882-13.006-22.384-13.675
						c-16.9-0.835-28.312,11.207-29.151,24.807c-0.832,13.439,8.617,25.577,16.246,33.827
						c10.371,11.215,26.036,22.637,35.193,27.945c9.169-5.285,24.866-16.665,35.268-27.853
						C2950.755,476.338,2960.235,464.227,2959.439,450.784z"/>
					
						<linearGradient id="SVGID_00000077292805818498590730000014446209445369967292_" gradientUnits="userSpaceOnUse" x1="3320.2852" y1="-169.6419" x2="3260.0632" y2="-169.6419" gradientTransform="matrix(0.9998 0.0174 -0.0174 0.9998 -373.1795 581.4881)">
						<stop  offset="0" style="stop-color:#FB984D"/>
						<stop  offset="0.22" style="stop-color:#F9944C"/>
						<stop  offset="0.425" style="stop-color:#F3894B"/>
						<stop  offset="0.6243" style="stop-color:#E97648"/>
						<stop  offset="0.8186" style="stop-color:#DA5C44"/>
						<stop  offset="1" style="stop-color:#C93C40"/>
					</linearGradient>
					<path style="fill:url(#SVGID_00000077292805818498590730000014446209445369967292_);" d="M2959.439,450.784
						c-0.805-13.602-12.183-25.674-29.087-24.883c-13.501,0.633-22.419,13.616-22.419,13.616l-0.096,72.904
						c9.169-5.285,24.866-16.665,35.268-27.853C2950.755,476.338,2960.235,464.227,2959.439,450.784z"/>
				</g>
			</g>
			<g>
				<g>
					<rect x="2332.909" y="-260.627" style="fill:#ED7E49;" width="2.382" height="715.911"/>
				</g>
				<g>
					
						<linearGradient id="SVGID_00000122717414503400641940000008894404831988415892_" gradientUnits="userSpaceOnUse" x1="2595.583" y1="-128.6606" x2="2693.6062" y2="-128.6606" gradientTransform="matrix(0.9998 0.0174 -0.0174 0.9998 -373.1795 581.4881)">
						<stop  offset="0" style="stop-color:#FB984D"/>
						<stop  offset="0.22" style="stop-color:#F9944C"/>
						<stop  offset="0.425" style="stop-color:#F3894B"/>
						<stop  offset="0.6243" style="stop-color:#E97648"/>
						<stop  offset="0.8186" style="stop-color:#DA5C44"/>
						<stop  offset="1" style="stop-color:#C93C40"/>
					</linearGradient>
					<path style="fill:url(#SVGID_00000122717414503400641940000008894404831988415892_);" d="M2430.048,466.123
						c-1.5-25.339-22.694-47.826-54.186-46.354c-25.15,1.178-41.764,25.364-41.764,25.364s-16.546-24.229-41.698-25.475
						c-31.483-1.555-52.742,20.877-54.305,46.211c-1.549,25.036,16.053,47.647,30.265,63.015
						c19.32,20.893,48.503,42.169,65.559,52.058c17.082-9.846,46.323-31.045,65.699-51.885
						C2413.872,513.726,2431.532,491.166,2430.048,466.123z"/>
					
						<linearGradient id="SVGID_00000075159761324506837910000002443428033162243517_" gradientUnits="userSpaceOnUse" x1="2782.8325" y1="-128.6606" x2="2670.6475" y2="-128.6606" gradientTransform="matrix(0.9998 0.0174 -0.0174 0.9998 -373.1795 581.4881)">
						<stop  offset="0" style="stop-color:#FB984D"/>
						<stop  offset="0.22" style="stop-color:#F9944C"/>
						<stop  offset="0.425" style="stop-color:#F3894B"/>
						<stop  offset="0.6243" style="stop-color:#E97648"/>
						<stop  offset="0.8186" style="stop-color:#DA5C44"/>
						<stop  offset="1" style="stop-color:#C93C40"/>
					</linearGradient>
					<path style="fill:url(#SVGID_00000075159761324506837910000002443428033162243517_);" d="M2430.048,466.123
						c-1.5-25.339-22.694-47.826-54.186-46.354c-25.15,1.178-41.764,25.364-41.764,25.364l-0.179,135.809
						c17.082-9.846,46.323-31.045,65.699-51.885C2413.872,513.726,2431.532,491.166,2430.048,466.123z"/>
				</g>
			</g>
			<g>
				<g>
					<rect x="2795.378" y="-260.627" style="fill:#ED7E49;" width="3.96" height="1218.865"/>
				</g>
				<g>
					
						<linearGradient id="SVGID_00000023960513049519317070000017117724708066337707_" gradientUnits="userSpaceOnUse" x1="3004.5764" y1="391.9182" x2="3159.1155" y2="391.9182" gradientTransform="matrix(0.9998 0.0174 -0.0174 0.9998 -373.1795 581.4881)">
						<stop  offset="0" style="stop-color:#FB984D"/>
						<stop  offset="0.22" style="stop-color:#F9944C"/>
						<stop  offset="0.425" style="stop-color:#F3894B"/>
						<stop  offset="0.6243" style="stop-color:#E97648"/>
						<stop  offset="0.8186" style="stop-color:#DA5C44"/>
						<stop  offset="1" style="stop-color:#C93C40"/>
					</linearGradient>
					<path style="fill:url(#SVGID_00000023960513049519317070000017117724708066337707_);" d="M2948.629,975.326
						c-2.365-39.948-35.779-75.401-85.427-73.078c-39.65,1.857-65.842,39.987-65.842,39.987s-26.086-38.198-65.74-40.163
						c-49.634-2.452-83.15,32.914-85.615,72.854c-2.441,39.471,25.309,75.118,47.715,99.348
						c30.459,32.938,76.467,66.482,103.357,82.072c26.931-15.521,73.031-48.943,103.578-81.8
						C2923.127,1050.375,2950.968,1014.807,2948.629,975.326z"/>
					
						<linearGradient id="SVGID_00000183212345861107112040000008898346346577618102_" gradientUnits="userSpaceOnUse" x1="3299.7861" y1="391.9182" x2="3122.9207" y2="391.9182" gradientTransform="matrix(0.9998 0.0174 -0.0174 0.9998 -373.1795 581.4881)">
						<stop  offset="0" style="stop-color:#FB984D"/>
						<stop  offset="0.22" style="stop-color:#F9944C"/>
						<stop  offset="0.425" style="stop-color:#F3894B"/>
						<stop  offset="0.6243" style="stop-color:#E97648"/>
						<stop  offset="0.8186" style="stop-color:#DA5C44"/>
						<stop  offset="1" style="stop-color:#C93C40"/>
					</linearGradient>
					<path style="fill:url(#SVGID_00000183212345861107112040000008898346346577618102_);" d="M2948.629,975.326
						c-2.365-39.948-35.779-75.401-85.427-73.078c-39.65,1.857-65.842,39.987-65.842,39.987l-0.283,214.111
						c26.931-15.521,73.031-48.943,103.578-81.8C2923.127,1050.375,2950.968,1014.807,2948.629,975.326z"/>
				</g>
			</g>
			<g>
				<g>
					<rect x="3155.119" y="-380.246" style="fill:#ED7E49;" width="1.743" height="669.592"/>
				</g>
				<g>
					
						<linearGradient id="SVGID_00000037675654105545810220000011691090292614516113_" gradientUnits="userSpaceOnUse" x1="3456.6633" y1="-326.114" x2="3516.8501" y2="-326.114" gradientTransform="matrix(0.9998 0.0174 -0.0174 0.9998 -373.1795 581.4881)">
						<stop  offset="0" style="stop-color:#FB984D"/>
						<stop  offset="0.22" style="stop-color:#F9944C"/>
						<stop  offset="0.425" style="stop-color:#F3894B"/>
						<stop  offset="0.6243" style="stop-color:#E97648"/>
						<stop  offset="0.8186" style="stop-color:#DA5C44"/>
						<stop  offset="1" style="stop-color:#C93C40"/>
					</linearGradient>
					<path style="fill:url(#SVGID_00000037675654105545810220000011691090292614516113_);" d="M3214.906,296.003
						c-0.921-15.558-13.935-29.366-33.271-28.461c-15.442,0.724-25.642,15.574-25.642,15.574s-10.16-14.877-25.603-15.642
						c-19.331-0.955-32.383,12.818-33.344,28.373c-0.951,15.372,9.857,29.255,18.583,38.692
						c11.862,12.829,29.781,25.892,40.253,31.964c10.488-6.045,28.442-19.061,40.34-31.857
						C3204.973,325.231,3215.817,311.379,3214.906,296.003z"/>
					
						<linearGradient id="SVGID_00000024713831193883432940000014372696067945587126_" gradientUnits="userSpaceOnUse" x1="3571.6357" y1="-326.114" x2="3502.7537" y2="-326.114" gradientTransform="matrix(0.9998 0.0174 -0.0174 0.9998 -373.1795 581.4881)">
						<stop  offset="0" style="stop-color:#FB984D"/>
						<stop  offset="0.22" style="stop-color:#F9944C"/>
						<stop  offset="0.425" style="stop-color:#F3894B"/>
						<stop  offset="0.6243" style="stop-color:#E97648"/>
						<stop  offset="0.8186" style="stop-color:#DA5C44"/>
						<stop  offset="1" style="stop-color:#C93C40"/>
					</linearGradient>
					<path style="fill:url(#SVGID_00000024713831193883432940000014372696067945587126_);" d="M3214.906,296.003
						c-0.921-15.558-13.935-29.366-33.271-28.461c-15.442,0.724-25.642,15.574-25.642,15.574l-0.11,83.387
						c10.488-6.045,28.442-19.061,40.34-31.857C3204.973,325.231,3215.817,311.379,3214.906,296.003z"/>
				</g>
			</g>
		</g>
	</g>
</g>
</svg>
